<svg width="115" height="112" viewBox="0 0 115 112" fill="none" xmlns="http://www.w3.org/2000/svg">
<rect width="115" height="112" fill="#F2ECF8"/>
<path d="M85.4711 104C74.6905 104 65.947 95.5432 65.947 85.1154V26.9699C65.947 16.5421 74.6905 8.08531 85.4711 8.08531C96.2518 8.08531 104.992 16.5421 104.992 26.9699V85.0987C105.006 95.5432 96.2655 104 85.4711 104Z" fill="url(#paint0_linear_1_7)"/>
<path d="M29.543 104C18.7623 104 10.0223 95.5432 10.0223 85.1154V26.9699C10.0223 16.5421 18.7623 8.08531 29.543 8.08531C40.3236 8.08531 49.0637 16.5421 49.0637 26.9699V85.0987C49.0774 95.5432 40.3236 104 29.543 104Z" fill="url(#paint1_linear_1_7)"/>
<path d="M94.9432 45.7174C96.9803 43.6897 98.833 41.4823 100.498 39.1484C116.962 17.164 84.1181 -5.05336 68.6307 17.2906C67.2977 19.3581 65.3596 21.0528 63.0456 22.055C60.2325 23.2902 56.975 23.5399 53.9876 22.7775C51.6189 22.1649 49.4245 20.9163 47.7735 19.1517C47.3428 18.6923 46.9395 18.2062 46.5806 17.6934C43.1523 11.9734 36.8801 8.07132 29.5449 8.08464C14.372 7.86156 4.7979 24.8318 13.0218 37.0375C13.7533 38.1895 14.5429 39.3282 15.3769 40.4136C19.1368 45.3844 23.8469 49.6894 29.1996 53.0089C37.1228 57.9531 46.4678 60.7032 55.8847 60.9662C70.3671 61.4523 84.9077 55.8422 94.9432 45.7174Z" fill="#9A85F5"/>
<defs>
<linearGradient id="paint0_linear_1_7" x1="85.4677" y1="104.003" x2="85.4677" y2="8.08531" gradientUnits="userSpaceOnUse">
<stop stop-color="#6055DB"/>
<stop offset="1" stop-color="#8464DD"/>
</linearGradient>
<linearGradient id="paint1_linear_1_7" x1="29.543" y1="108.225" x2="29.543" y2="108.225" gradientUnits="userSpaceOnUse">
<stop stop-color="#6055DB"/>
<stop offset="1" stop-color="#8464DD"/>
</linearGradient>
</defs>
</svg>
