<svg width="27" height="27" viewBox="0 0 27 27" fill="none" xmlns="http://www.w3.org/2000/svg">
<rect width="27" height="27" rx="13.5" fill="#00063D"/>
<path d="M13.4355 11.9624C12.4043 11.9624 11.5215 11.5952 10.7871 10.8608C10.0527 10.1265 9.68555 9.24365 9.68555 8.2124C9.68555 7.18115 10.0527 6.29834 10.7871 5.56396C11.5215 4.82959 12.4043 4.4624 13.4355 4.4624C14.4668 4.4624 15.3496 4.82959 16.084 5.56396C16.8184 6.29834 17.1855 7.18115 17.1855 8.2124C17.1855 9.24365 16.8184 10.1265 16.084 10.8608C15.3496 11.5952 14.4668 11.9624 13.4355 11.9624ZM5.93555 19.4624V16.8374C5.93555 16.3062 6.07227 15.8179 6.3457 15.3726C6.61914 14.9272 6.98242 14.5874 7.43555 14.353C8.4043 13.8687 9.38867 13.5054 10.3887 13.2632C11.3887 13.021 12.4043 12.8999 13.4355 12.8999C14.4668 12.8999 15.4824 13.021 16.4824 13.2632C17.4824 13.5054 18.4668 13.8687 19.4355 14.353C19.8887 14.5874 20.252 14.9272 20.5254 15.3726C20.7988 15.8179 20.9355 16.3062 20.9355 16.8374V19.4624H5.93555Z" fill="white"/>
</svg>
